<svg width="201" height="50" viewBox="0 0 201 50" fill="none" xmlns="http://www.w3.org/2000/svg">
<path d="M26.6982 46.2999C27.5994 44.4232 27.1341 42.1495 25.5619 40.8069C25.0967 40.41 24.7783 39.9249 24.5138 39.3957C23.8036 37.9894 23.5343 36.539 24.2004 35.0347C24.4746 34.4173 24.8224 33.8537 25.4101 33.4617C25.9146 33.1236 26.2966 32.6483 26.5905 32.1191C27.859 29.8357 27.1684 27.1554 24.9644 25.7736C22.8486 24.4456 20.6397 25.7295 18.3818 27.6013C17.4953 28.3363 17.5981 31.5997 19.3858 33.0354C19.8217 33.3882 20.3409 34.187 20.5662 34.677C21.1099 35.8579 21.3645 37.0731 20.9776 38.3618C20.6691 39.3859 20.0372 40.1993 19.2536 40.9C19.2438 40.9098 19.2291 40.9147 19.2193 40.9196C19.2193 40.9196 18.3622 41.9143 18.0438 42.7768C18.0438 42.7817 18.0389 42.7865 18.0389 42.7914C17.4365 44.6633 17.8185 46.3489 19.2193 47.7062C21.3156 49.7348 24.4893 49.2546 26.0517 47.3681C26.2672 47.0104 26.517 46.6723 26.6982 46.2999Z" fill="#DB9627"/>
<path d="M21.4722 33.937C23.1815 34.5789 25.1358 33.9958 26.1888 32.516C26.4974 32.0799 26.899 31.7614 27.3398 31.487C28.5152 30.7569 29.7593 30.409 31.1307 30.8745C31.6939 31.0656 32.2131 31.3253 32.6 31.8153C32.933 32.2318 33.3787 32.5307 33.8636 32.7463C35.955 33.6773 38.2471 32.8688 39.2855 30.8353C40.2846 28.8802 39.55 26.2146 37.1794 25.2149C35.3134 24.4309 33.2955 25.0532 32.1788 26.7291C31.9045 27.1407 31.5715 27.4396 31.16 27.6748C30.1707 28.2383 29.1275 28.5617 27.9716 28.3216C27.0508 28.1305 26.2916 27.6405 25.6157 27.0084C25.606 26.9986 25.6011 26.9888 25.5962 26.979C25.5962 26.979 24.6607 26.3077 23.8819 26.0921C23.877 26.0921 23.8721 26.0921 23.8672 26.0872C22.1824 25.7049 20.7425 26.1705 19.66 27.5033C18.0487 29.4976 18.7148 32.2318 20.4829 33.4568C20.8159 33.6136 21.1343 33.8047 21.4722 33.937Z" fill="#F0AB1D"/>
<path d="M3.81578 33.5499C5.05002 33.1628 5.87775 31.9868 5.81898 30.6981C5.79939 30.3208 5.88755 29.968 6.00999 29.625C6.34304 28.7087 6.88669 27.9688 7.85156 27.6307C8.24828 27.4935 8.6499 27.4102 9.0809 27.5082C9.44824 27.5964 9.82537 27.567 10.1927 27.4739C11.7649 27.077 12.6857 25.6265 12.3771 24.0389C12.0832 22.515 10.5062 21.3537 8.75275 21.8339C7.37158 22.2112 6.51936 23.4362 6.63201 24.8572C6.6565 25.2051 6.60262 25.5187 6.47528 25.8274C6.17162 26.5772 5.73082 27.2093 4.98146 27.5768C4.38393 27.8708 3.75211 27.9345 3.10071 27.8757C3.09091 27.8757 3.08601 27.8708 3.07622 27.8708C3.07622 27.8708 2.26318 27.9051 1.73422 28.1256C1.72933 28.1256 1.72933 28.1305 1.72443 28.1305C0.622426 28.6548 0.0199981 29.5417 0.000406936 30.752C-0.0289798 32.5699 1.53831 33.7998 3.05663 33.7067C3.31131 33.6577 3.57089 33.6234 3.81578 33.5499Z" fill="#EBAF1E"/>
<path d="M47.4257 26.1803C46.4707 22.5591 43.1842 19.9915 39.4668 19.9866C38.3697 19.9866 37.3608 19.6926 36.3861 19.281C33.7756 18.1834 31.7136 16.5173 30.8761 13.6753C30.5284 12.5091 30.3471 11.3331 30.6998 10.1032C30.9986 9.04967 30.9692 7.95695 30.7537 6.88874C29.8231 2.28759 25.753 -0.574043 21.1246 0.0972648C16.6774 0.744072 13.0971 5.13452 14.2432 10.2796C15.1444 14.327 18.5729 16.9584 22.6968 16.8359C23.7057 16.8065 24.5971 17.0074 25.4787 17.419C27.5995 18.4039 29.3676 19.7661 30.3325 21.9809C31.1014 23.7449 31.1896 25.5923 30.9349 27.469C30.93 27.4935 30.9202 27.518 30.9104 27.5425C30.9104 27.5425 30.8957 29.9043 31.4638 31.4576C31.4638 31.4576 31.4638 31.4576 31.4638 31.4625C31.4687 31.4723 31.4736 31.4821 31.4736 31.487C32.8303 34.7505 35.3135 36.6125 38.8203 36.833C44.0561 37.1613 47.8371 32.8051 47.7784 28.3951C47.6657 27.6552 47.6167 26.9006 47.4257 26.1803Z" fill="#FBBC12"/>
<path d="M22.4665 24.9209C21.5555 24.9209 20.7082 25.1757 19.9833 25.6167C19.6895 25.6657 19.3907 25.6804 19.0871 25.6755C17.5296 25.6608 16.1337 25.2443 15.1101 23.9752C14.6888 23.4509 14.3509 22.8923 14.2725 22.1965C14.204 21.5987 13.9591 21.045 13.626 20.5501C12.1959 18.399 9.52658 17.7914 7.31278 19.0997C5.18714 20.3541 4.27615 23.3382 5.9316 25.7196C7.23441 27.5915 9.52658 28.2138 11.6032 27.2926C12.1126 27.0672 12.6073 26.9839 13.1411 27.0084C14.4244 27.0672 15.6096 27.3906 16.5647 28.3167C17.0692 28.8067 17.4267 29.3751 17.6863 30.0023C17.8381 32.5062 19.9148 34.4907 22.4567 34.4907C25.0966 34.4907 27.237 32.3494 27.237 29.7083C27.237 27.0672 25.1064 24.9209 22.4665 24.9209Z" fill="#FEC025"/>
<path d="M139.276 17.7754C136.354 16.0094 133.185 15.9544 129.972 16.6569C126.281 17.4654 124.264 19.9064 124.19 23.6739C124.119 27.1549 124.1 30.6437 124.206 34.1247C124.272 36.4127 124.982 38.5712 127.32 39.4973C130.407 40.7218 134.66 40.5334 137.009 37.0132C137.233 36.6796 137.496 36.3774 137.884 35.879C138.002 37.1505 138.06 38.1316 138.206 39.097C138.241 39.3443 138.547 39.7328 138.743 39.7407C139.983 39.7995 141.226 39.7721 142.485 39.7721C142.532 39.5366 142.579 39.411 142.579 39.2815C142.583 34.1718 142.65 29.0622 142.548 23.9564C142.497 21.4212 141.579 19.1725 139.276 17.7754ZM137.299 29.1446C136.311 30.7497 135.373 32.3941 134.283 33.9285C133.604 34.8822 132.596 35.4591 131.329 35.4041C130.192 35.3531 129.568 34.9057 129.391 33.7519C129.258 32.8925 129.262 32.0055 129.238 31.1304C129.215 30.2866 129.234 29.4428 129.234 28.5991C129.234 28.5991 129.234 28.603 129.234 28.5912C129.234 26.8723 129.27 25.1534 129.403 23.4423C129.513 22.006 130.36 21.2485 131.772 21.1269C132.839 21.0366 133.926 21.0405 134.989 21.1387C136.319 21.2642 137.237 22.1669 137.343 23.513C137.476 25.1573 137.46 26.8134 137.484 28.4696C137.492 28.6972 137.417 28.9523 137.299 29.1446Z" fill="white"/>
<path d="M160.372 27.563C162.934 24.4038 163.86 20.3577 165.872 16.6569C164.134 16.6569 162.652 16.6883 161.169 16.6451C160.459 16.6255 160.098 16.8492 159.839 17.5438C159.027 19.7258 158.168 21.8921 157.238 24.0271C157.026 24.5137 156.505 25.0945 156.034 25.1926C155.136 25.3771 154.171 25.2476 153.096 25.2476C153.096 20.2753 153.096 15.4011 153.096 10.4523C151.739 10.4523 150.527 10.4523 149.315 10.4523C147.993 10.4562 147.989 10.4562 147.989 11.7945C147.985 20.7187 147.985 29.6469 147.985 38.5711C147.985 38.8066 147.93 39.0735 148.016 39.2736C148.106 39.4777 148.338 39.7563 148.51 39.7603C150.017 39.7995 151.527 39.7838 153.139 39.7838C153.139 36.4166 153.139 33.1868 153.139 29.851C153.771 29.851 154.316 29.9216 154.834 29.8392C156.273 29.6077 156.96 30.3141 157.462 31.5777C158.454 34.0855 159.564 36.55 160.655 39.0225C160.784 39.3207 161.09 39.7485 161.33 39.7563C163.032 39.8191 164.738 39.7917 166.613 39.7917C165.005 36.3931 163.515 33.1868 161.957 30.0119C161.534 29.1367 160.91 28.3754 160.372 27.563Z" fill="white"/>
<path d="M102.976 17.0533C100.897 16.237 98.7398 16.1192 96.6019 16.3586C92.6126 16.8021 89.9177 18.5563 89.1646 22.5946C88.8194 24.4391 88.9096 26.3621 88.8115 28.0614C88.9057 29.9805 88.9017 31.7112 89.09 33.4183C89.3882 36.1655 90.6866 38.2454 93.3736 39.2972C95.6056 40.1723 97.9121 40.2037 100.246 39.984C104.055 39.6229 107.06 36.9739 107.252 33.4419C107.444 29.9059 107.456 26.3425 107.24 22.8105C107.075 20.1222 105.632 18.0972 102.976 17.0533ZM102.27 32.3155C102.223 34.1051 101.372 35.1176 99.6224 35.3374C98.6927 35.4551 97.7199 35.4512 96.7941 35.3217C95.0368 35.0745 94.1699 34.1051 94.1267 32.2999C94.064 29.5606 94.064 26.8213 94.1306 24.0859C94.1777 22.2179 95.0878 21.2878 96.9157 21.1073C97.7826 21.0209 98.6692 21.017 99.5321 21.0994C101.364 21.2721 102.211 22.2375 102.274 24.1016C102.298 24.812 102.286 25.5223 102.29 26.2326C102.294 26.9076 102.29 27.5866 102.29 28.2616C102.286 28.2616 102.282 28.2616 102.282 28.2616C102.274 29.6116 102.305 30.9616 102.27 32.3155Z" fill="white"/>
<path d="M200.976 23.7916C200.968 22.7163 200.823 21.6292 200.603 20.5775C200.227 18.7918 199.277 17.3358 197.477 16.7707C194.127 15.719 190.412 16.029 188.117 19.4708C187.929 19.7533 187.713 20.0123 187.364 20.4715C187.207 19.0351 187.082 17.8813 186.956 16.7511C185.442 16.7511 184.046 16.7511 182.685 16.7511C182.685 24.4705 182.685 32.0879 182.685 39.7799C184.124 39.7799 185.474 39.7446 186.819 39.7917C187.584 39.8191 187.804 39.5405 187.796 38.7949C187.757 36.1929 187.98 33.5675 187.729 30.9891C187.447 28.0693 188.474 25.7107 190.106 23.4894C190.62 22.7909 191.205 22.1119 191.879 21.5743C192.715 20.9071 193.754 20.7501 194.747 21.225C195.708 21.6842 195.798 22.626 195.798 23.5718C195.798 28.5755 195.806 33.5792 195.81 38.5829C195.81 38.944 195.81 39.305 195.81 39.721C197.579 39.721 199.219 39.721 200.941 39.721C200.964 39.4424 200.992 39.2736 200.992 39.1088C200.996 34.0031 201.015 28.8973 200.976 23.7916Z" fill="white"/>
<path d="M84.881 34.0305C82.4136 35.2746 79.8051 35.5532 77.0945 35.1922C74.7605 34.8822 73.266 33.4458 73.2268 31.2402C73.164 27.6219 73.1522 23.9996 73.2385 20.3812C73.2935 18.0265 74.6115 16.6569 76.9023 16.2213C79.4403 15.7386 81.8645 16.1389 84.2181 17.1318C84.5358 17.2652 84.8614 17.379 85.3242 17.5556C85.3242 16.1467 85.2968 14.9341 85.336 13.7214C85.3556 13.1366 85.1556 12.8384 84.6221 12.5558C81.5507 10.935 78.3262 10.9507 75.0508 11.6257C71.0772 12.4459 68.602 14.9655 67.9743 18.9763C67.7194 20.601 67.7704 22.2767 67.7743 23.929C67.7821 26.837 67.7272 29.7529 67.9547 32.6452C68.1705 35.4434 69.5944 37.645 72.1912 38.8812C74.6625 40.0585 77.3456 40.2862 80.013 40.0507C81.5899 39.9133 83.1354 39.3247 84.6731 38.8655C84.9438 38.7831 85.285 38.3632 85.3007 38.0884C85.3674 36.7424 85.3282 35.3963 85.3282 33.9403C85.0654 33.9952 84.9594 33.9913 84.881 34.0305Z" fill="white"/>
<path d="M117.961 32.7512C117.949 32.4804 117.945 32.2096 117.945 31.9388C117.945 26.5976 117.945 21.2564 117.945 15.9191C117.945 14.365 117.973 12.807 117.914 11.2568C117.902 10.9782 117.537 10.4955 117.318 10.4837C115.874 10.4131 114.427 10.4484 112.873 10.4484C112.85 10.8761 112.826 11.143 112.826 11.4059C112.826 18.6388 112.822 25.8716 112.834 33.1044C112.834 33.8461 112.908 34.5878 113.018 35.3217C113.673 39.7838 117.404 40.5883 120.558 39.9094C120.766 39.8662 121.079 39.5994 121.083 39.4267C121.126 38.057 121.107 36.6835 121.107 35.3021C118.428 35.5846 118.086 35.2903 117.961 32.7512Z" fill="white"/>
<path d="M171.077 39.7171C172.748 39.7171 174.349 39.7171 175.992 39.7171C175.992 32.0134 175.992 24.3724 175.992 16.7001C174.329 16.7001 172.752 16.7001 171.077 16.7001C171.077 24.4391 171.077 32.0565 171.077 39.7171Z" fill="white"/>
<path d="M175.989 16.7825C175.989 16.755 175.989 16.7275 175.989 16.7001C174.325 16.7001 172.748 16.7001 171.073 16.7001C171.073 17.5988 171.073 18.4936 171.073 19.3883C172.811 18.521 174.502 17.6459 175.989 16.7825Z" fill="#FBC01F"/>
<path d="M162.824 23.4384C163.84 21.2289 164.66 18.8782 165.872 16.653C165.664 16.653 165.456 16.653 165.256 16.653C164.797 17.1475 156.387 26.2169 162.824 23.4384Z" fill="#FBC01F"/>
<path d="M175.992 9.00418H171.077V13.9215H175.992V9.00418Z" fill="#FBC01F"/>
</svg>
